<svg width="19" height="13" viewBox="0 0 19 13" fill="none" xmlns="http://www.w3.org/2000/svg">
<path d="M7.6001 1.78003C7.6001 2.08003 7.5001 2.28003 7.3001 2.48003L2.3001 7.48003C1.9001 7.88003 1.3001 7.88003 0.900098 7.48003C0.500098 7.08003 0.500098 6.48003 0.900098 6.08003L5.9001 1.08003C6.3001 0.680029 6.9001 0.680029 7.3001 1.08003C7.5001 1.28003 7.6001 1.48003 7.6001 1.78003Z" fill="black"/>
<path d="M7.6001 11.78C7.6001 12.08 7.5001 12.28 7.3001 12.48C6.9001 12.88 6.3001 12.88 5.9001 12.48L0.900098 7.48003C0.500098 7.08003 0.500098 6.48003 0.900098 6.08003C1.3001 5.68003 1.9001 5.68003 2.3001 6.08003L7.3001 11.08C7.5001 11.28 7.6001 11.48 7.6001 11.78Z" fill="black"/>
<path d="M18.6001 6.78003C18.6001 7.38003 18.2001 7.78003 17.6001 7.78003L1.6001 7.78003C1.0001 7.78003 0.600098 7.38003 0.600098 6.78003C0.600098 6.18003 1.0001 5.78003 1.6001 5.78003L17.6001 5.78003C18.2001 5.78003 18.6001 6.18003 18.6001 6.78003Z" fill="black"/>
</svg>
