<svg width="23" height="22" viewBox="0 0 23 22" fill="none" xmlns="http://www.w3.org/2000/svg">
<path d="M20.536 5.17591V5.08129H17.1769C17.0323 3.70843 16.3924 2.43528 15.3771 1.50004C14.3617 0.564788 13.0404 0.0315199 11.6603 0C10.2819 0.0337873 8.96282 0.568069 7.94943 1.5031C6.93604 2.43814 6.29757 3.71001 6.1532 5.08129H2.82245L0.66503 19.4546V19.5587C0.647148 20.1855 0.877863 20.7939 1.30685 21.2513C1.73583 21.7086 2.32827 21.9778 2.95492 22H20.3657C20.9965 21.9778 21.5928 21.7063 22.0239 21.2452C22.4549 20.784 22.6855 20.1707 22.665 19.5398L20.536 5.17591ZM7.79019 5.08129C7.93946 4.15332 8.40759 3.30642 9.11397 2.68639C9.82036 2.06636 10.7208 1.71199 11.6603 1.6843C12.6014 1.70982 13.5041 2.06321 14.2125 2.68343C14.9208 3.30365 15.3903 4.15176 15.5399 5.08129H7.79019ZM21.0375 19.5871C21.0376 19.7755 20.9648 19.9567 20.8342 20.0925C20.7037 20.2284 20.5256 20.3084 20.3373 20.3157H2.95492C2.77238 20.3085 2.59941 20.2322 2.47112 20.1021C2.34283 19.9721 2.26884 19.7981 2.26417 19.6155L4.15664 6.76559H19.145L21.0375 19.5871Z" fill="white"/>
</svg>
