<svg width="19" height="13" viewBox="0 0 19 13" fill="none" xmlns="http://www.w3.org/2000/svg">
<path d="M11.6001 11.8C11.6001 11.5 11.7001 11.3 11.9001 11.1L16.9001 6.10005C17.3001 5.70005 17.9001 5.70005 18.3001 6.10005C18.7001 6.50005 18.7001 7.10005 18.3001 7.50005L13.3001 12.5C12.9001 12.9 12.3001 12.9 11.9001 12.5C11.7001 12.3 11.6001 12.1 11.6001 11.8Z" fill="black"/>
<path d="M11.6001 1.80005C11.6001 1.50005 11.7001 1.30005 11.9001 1.10005C12.3001 0.700049 12.9001 0.700049 13.3001 1.10005L18.3001 6.10005C18.7001 6.50005 18.7001 7.10005 18.3001 7.50005C17.9001 7.90005 17.3001 7.90005 16.9001 7.50005L11.9001 2.50005C11.7001 2.30005 11.6001 2.10005 11.6001 1.80005Z" fill="black"/>
<path d="M0.600098 6.80005C0.600098 6.20005 1.0001 5.80005 1.6001 5.80005L17.6001 5.80005C18.2001 5.80005 18.6001 6.20005 18.6001 6.80005C18.6001 7.40005 18.2001 7.80005 17.6001 7.80005L1.6001 7.80005C1.0001 7.80005 0.600098 7.40005 0.600098 6.80005Z" fill="black"/>
</svg>
