<svg width="19" height="13" viewBox="0 0 19 13" fill="none" xmlns="http://www.w3.org/2000/svg">
<path d="M11.5996 11.8C11.5996 11.5 11.6996 11.3 11.8996 11.1L16.8996 6.10005C17.2996 5.70005 17.8996 5.70005 18.2996 6.10005C18.6996 6.50005 18.6996 7.10005 18.2996 7.50005L13.2996 12.5C12.8996 12.9 12.2996 12.9 11.8996 12.5C11.6996 12.3 11.5996 12.1 11.5996 11.8Z" fill="white"/>
<path d="M11.5996 1.80005C11.5996 1.50005 11.6996 1.30005 11.8996 1.10005C12.2996 0.700049 12.8996 0.700049 13.2996 1.10005L18.2996 6.10005C18.6996 6.50005 18.6996 7.10005 18.2996 7.50005C17.8996 7.90005 17.2996 7.90005 16.8996 7.50005L11.8996 2.50005C11.6996 2.30005 11.5996 2.10005 11.5996 1.80005Z" fill="white"/>
<path d="M0.599609 6.80005C0.599609 6.20005 0.999609 5.80005 1.59961 5.80005L17.5996 5.80005C18.1996 5.80005 18.5996 6.20005 18.5996 6.80005C18.5996 7.40005 18.1996 7.80005 17.5996 7.80005L1.59961 7.80005C0.999609 7.80005 0.599609 7.40005 0.599609 6.80005Z" fill="white"/>
</svg>
