<svg width="25" height="22" viewBox="0 0 25 22" fill="none" xmlns="http://www.w3.org/2000/svg">
<path d="M7.74286 1.92145C8.54793 1.91474 9.34359 2.09489 10.0673 2.44773C10.7909 2.80057 11.4229 3.31649 11.9134 3.95491C12.0026 4.06895 12.1166 4.1612 12.2467 4.22464C12.3768 4.28808 12.5197 4.32105 12.6645 4.32105C12.8093 4.32105 12.9521 4.28808 13.0823 4.22464C13.2124 4.1612 13.3264 4.06895 13.4156 3.95491C13.9086 3.31467 14.5429 2.79704 15.269 2.44242C15.9951 2.08779 16.7933 1.90576 17.6014 1.91054C20.4738 1.91818 22.7952 4.19709 22.7887 7.00072C22.7887 10.8429 19.961 14.1985 17.5894 16.3345C16.0685 17.6917 14.4193 18.8977 12.665 19.9356C10.9108 18.8981 9.26158 17.6924 7.74068 16.3356C5.36686 14.1975 2.53922 10.8429 2.53922 7.00072C2.54358 4.19709 4.87049 1.92472 7.74286 1.92145ZM13.1134 21.7956C15.1637 20.6479 17.0808 19.277 18.8298 17.708C20.3693 16.3615 21.7073 14.8009 22.8029 13.0738C24.0389 11.0611 24.665 9.01454 24.665 7.00072C24.665 5.90981 24.3989 4.83418 23.8905 3.86109C22.1123 0.461815 17.8458 -0.888731 14.3614 0.847996C13.7416 1.16007 13.1702 1.56022 12.665 2.036C12.1587 1.56011 11.5863 1.15996 10.9654 0.847996C9.96561 0.350413 8.86399 0.0916252 7.74722 0.0919963C3.8374 0.0898145 0.667221 3.18363 0.665039 7.00072C0.665039 9.01454 1.29122 11.0611 2.52722 13.0727C3.62171 14.8003 4.95946 16.361 6.49922 17.7069C8.24822 19.2759 10.1653 20.6468 12.2156 21.7945C12.3535 21.8691 12.5077 21.9082 12.6645 21.9082C12.8212 21.9082 12.9755 21.8702 13.1134 21.7956Z" fill="white"/>
</svg>
