<svg width="128" height="27" viewBox="0 0 128 27" fill="none" xmlns="http://www.w3.org/2000/svg">
<path d="M7.02539 9.57812L7.05469 10.0908C7.05469 10.3936 7.26953 10.5449 7.69922 10.5449H8.37305L8.49023 10.5303L9.28125 10.501C9.35938 10.4912 9.4375 10.4863 9.51562 10.4863C10.2676 10.4863 10.9561 10.208 11.5811 9.65137C12.2061 9.08496 12.5186 8.37207 12.5186 7.5127L12.5479 7.27832V6.80957C12.5479 5.9209 12.2305 5.19336 11.5957 4.62695C10.9707 4.06055 10.0283 3.77734 8.76855 3.77734H8.19727C7.55273 3.77734 7.17676 3.93359 7.06934 4.24609C7.03027 4.36328 7.01074 5.22266 7.01074 6.82422V9.46094L7.02539 9.57812ZM7.01074 18.543L7.04004 19.1436C7.04004 19.7197 7.5625 20.0078 8.60742 20.0078L8.73926 20.0225L8.85645 20.0371L9.38379 20.0518H10.043C11.0098 20.0518 11.8301 19.7441 12.5039 19.1289C13.1875 18.5137 13.5293 17.6787 13.5293 16.624V16.0674C13.5293 15.0811 13.1777 14.2363 12.4746 13.5332C11.7715 12.8301 10.6973 12.4785 9.25195 12.4785H8.34375C7.60156 12.4785 7.19141 12.5664 7.11328 12.7422C7.04492 12.9082 7.01074 14.0215 7.01074 16.082L6.99609 16.3311V16.6973L6.98145 16.8145V17.0635L6.9668 17.5615V17.6787L6.98145 17.7959V18.0449L6.99609 18.1621C6.99609 18.25 6.99609 18.3379 6.99609 18.4258L7.01074 18.543ZM7.81641 1.71191H9.39844C11.8203 1.71191 13.6465 2.15137 14.877 3.03027C16.1074 3.90918 16.7227 5.09082 16.7227 6.5752C16.7227 7.4248 16.5273 8.20605 16.1367 8.91895C15.7461 9.63184 15.2725 10.1738 14.7158 10.5449C14.1689 10.9062 13.8955 11.1113 13.8955 11.1602C13.8955 11.209 14.2715 11.4238 15.0234 11.8047C15.7852 12.1855 16.3906 12.6396 16.8398 13.167C17.5527 14.0166 17.9092 14.9395 17.9092 15.9355V16.3164C17.9092 19.2266 16.166 21.0674 12.6797 21.8389C11.752 22.0439 10.4434 22.1465 8.75391 22.1465H7.97754L7.58203 22.1318C7.31836 22.1221 7.05957 22.1172 6.80566 22.1172L6.0293 22.0879C5.77539 22.0781 5.5166 22.0732 5.25293 22.0732L3.36328 22.0293C2.29883 22.0293 1.66895 22.0098 1.47363 21.9707C0.96582 21.873 0.711914 21.6338 0.711914 21.2529C0.711914 20.9795 1.03418 20.5742 1.67871 20.0371C2.1084 19.6758 2.3916 19.1191 2.52832 18.3672C2.6748 17.6152 2.74805 15.3887 2.74805 11.6875C2.74805 7.97656 2.67969 5.84766 2.54297 5.30078C2.41602 4.75391 2.0791 4.26562 1.53223 3.83594C0.995117 3.40625 0.726562 3.02539 0.726562 2.69336C0.726562 2.35156 0.916992 2.12207 1.29785 2.00488C1.68848 1.8877 2.72363 1.8291 4.40332 1.8291L5.92676 1.77051C6.94238 1.73145 7.57227 1.71191 7.81641 1.71191ZM21.6152 3.00098C21.6152 2.43457 21.835 1.95605 22.2744 1.56543C22.7236 1.1748 23.207 0.979492 23.7246 0.979492H24.1934C24.3398 1.00879 24.4619 1.02344 24.5596 1.02344C25.0283 1.02344 25.4434 1.2334 25.8047 1.65332C26.166 2.07324 26.3467 2.47363 26.3467 2.85449V3.23535C26.3271 3.33301 26.3174 3.40625 26.3174 3.45508C26.3174 3.86523 26.0879 4.26562 25.6289 4.65625C25.1699 5.04688 24.6621 5.24219 24.1055 5.24219H23.6514C23.1045 5.24219 22.6309 5.07129 22.2305 4.72949C21.8398 4.37793 21.6445 3.97754 21.6445 3.52832L21.6152 3.38184V3.00098ZM24.3984 22.0586H23.0068C21.708 22.0586 20.9268 22.0244 20.6631 21.9561C20.4092 21.8779 20.2822 21.668 20.2822 21.3262C20.2822 20.9746 20.5264 20.5547 21.0146 20.0664C21.5029 19.5781 21.8105 19.0898 21.9375 18.6016C22.0645 18.1035 22.1279 16.8193 22.1279 14.749C22.1279 12.6689 22.0742 11.4434 21.9668 11.0723C21.8594 10.7012 21.5225 10.3838 20.9561 10.1201C20.3994 9.84668 20.1211 9.52441 20.1211 9.15332C20.1211 8.77246 20.3799 8.49414 20.8975 8.31836C22.0693 7.92773 23.3633 7.73242 24.7793 7.73242H24.999C25.5654 7.73242 25.8926 7.97168 25.9805 8.4502C26.0293 8.72363 26.0537 10.3643 26.0537 13.3721C26.0537 16.3701 26.1172 18.1279 26.2441 18.6455C26.3809 19.1533 26.7227 19.6953 27.2695 20.2715C27.8164 20.8477 28.0898 21.209 28.0898 21.3555V21.5312C28.0898 21.8828 26.8594 22.0586 24.3984 22.0586ZM37.2012 20.1836H37.4502C38.3389 20.1836 38.998 19.8467 39.4277 19.1729C39.7207 18.7139 39.8672 17.6836 39.8672 16.082V14.0459C39.8672 12.3564 39.6914 11.2041 39.3398 10.5889C38.998 9.96387 38.3291 9.65137 37.333 9.65137H37.2012C36.3027 9.65137 35.5459 10.1152 34.9307 11.043C34.3154 11.9609 34.0078 13.0938 34.0078 14.4414V15.3936C34.0078 16.6436 34.2471 17.6689 34.7256 18.4697C35.4092 19.6123 36.2344 20.1836 37.2012 20.1836ZM39.3252 7.98145C39.7842 7.98145 40.0137 7.4541 40.0137 6.39941C40.0137 4.68066 39.6426 3.49414 38.9004 2.83984C38.3438 2.36133 38.0654 2.04395 38.0654 1.8877C38.0654 1.5752 38.5244 1.27246 39.4424 0.979492C40.3604 0.686523 41.1953 0.540039 41.9473 0.540039C42.6992 0.540039 43.1875 0.623047 43.4121 0.789062C43.6465 0.955078 43.8027 1.31641 43.8809 1.87305C43.9688 2.42969 44.0127 5.13965 44.0127 10.0029C44.0127 14.8564 44.0664 17.6006 44.1738 18.2354C44.2812 18.8604 44.4814 19.3535 44.7744 19.7148C44.7939 19.7441 44.9795 19.8857 45.3311 20.1396C45.6826 20.3936 45.8584 20.6035 45.8584 20.7695V21.0186C45.8584 21.165 45.7607 21.3213 45.5654 21.4873C44.9795 21.9756 43.7148 22.2197 41.7715 22.2197C41.2637 22.2197 40.873 22.0439 40.5996 21.6924C40.3262 21.3408 40.1797 21.165 40.1602 21.165C39.9746 21.1748 39.6572 21.2969 39.208 21.5312C38.1631 22.0977 37.1963 22.3809 36.3076 22.3809C36.2881 22.3809 36.2734 22.3809 36.2637 22.3809H35.8828C35.1699 22.3809 34.4619 22.2148 33.7588 21.8828C32.3037 21.1992 31.2783 20.0273 30.6826 18.3672C30.3799 17.5078 30.2285 16.6436 30.2285 15.7744V15.3789C30.2285 15.3496 30.2285 15.3252 30.2285 15.3057C30.2285 14.1826 30.4287 13.1279 30.8291 12.1416C31.9717 9.2998 34.0615 7.87891 37.0986 7.87891C37.8506 7.87891 38.2949 7.88379 38.4316 7.89355L38.7393 7.92285C39.0713 7.96191 39.2666 7.98145 39.3252 7.98145ZM63.5537 12.5225V11.292C63.5537 10.1592 63.3828 9.02148 63.041 7.87891C62.084 4.68555 60.3701 3.08887 57.8994 3.08887C57.0889 3.08887 56.3662 3.2793 55.7314 3.66016C55.1064 4.04102 54.5986 4.53418 54.208 5.13965C53.2217 6.67285 52.7285 8.63574 52.7285 11.0283V11.7607C52.7285 12.8252 52.8799 13.9238 53.1826 15.0566C53.7783 17.2637 54.75 18.7725 56.0977 19.583C56.7324 19.9639 57.3574 20.1543 57.9727 20.1543H58.6758C59.252 20.1543 59.8818 19.9395 60.5654 19.5098C62.5576 18.2793 63.5537 15.9502 63.5537 12.5225ZM47.8652 11.9219V11.4678C47.8652 10.0322 48.1338 8.62109 48.6709 7.23438C49.7256 4.5293 51.542 2.67871 54.1201 1.68262C55.3994 1.18457 56.6592 0.935547 57.8994 0.935547H58.3535C59.8477 0.935547 61.2344 1.2041 62.5137 1.74121C66.4199 3.38184 68.373 6.74121 68.373 11.8193C68.373 13.6748 67.9092 15.4619 66.9814 17.1807C66.4639 18.1377 65.7803 19.0215 64.9307 19.832C64.7451 20.0078 64.3594 20.3154 63.7734 20.7549C63.1973 21.1846 62.9092 21.4775 62.9092 21.6338C62.9092 21.9756 63.2998 22.376 64.0811 22.835C64.8623 23.3037 65.8242 23.6699 66.9668 23.9336C68.1094 24.207 68.6807 24.5342 68.6807 24.915C68.6807 25.3057 68.3633 25.6475 67.7285 25.9404C67.1035 26.2334 66.3369 26.3799 65.4287 26.3799C64.5303 26.3799 63.6367 26.1846 62.748 25.7939C56.1562 22.9131 52.3428 21.0186 51.3076 20.1104C50.2822 19.1924 49.4521 18.0352 48.8174 16.6387C48.1826 15.2324 47.8652 13.6602 47.8652 11.9219ZM87.2842 20.8867C87.2842 21.6777 86.166 22.0732 83.9297 22.0732C83.2656 22.0732 82.8115 21.9805 82.5674 21.7949C82.3232 21.6094 82.123 21.3652 81.9668 21.0625C81.8105 20.75 81.6787 20.5938 81.5713 20.5938C81.4736 20.5938 81.1758 20.7549 80.6777 21.0771C80.1797 21.3896 79.6475 21.668 79.0811 21.9121C78.5244 22.1562 77.792 22.2783 76.8838 22.2783C75.9756 22.2783 75.2041 22.083 74.5693 21.6924C73.9443 21.3018 73.4512 20.7354 73.0898 19.9932C72.7383 19.251 72.5625 17.5762 72.5625 14.9688C72.5625 12.3613 72.5039 10.9355 72.3867 10.6914C72.2793 10.4473 71.9668 10.208 71.4492 9.97363C70.9316 9.73926 70.6729 9.45117 70.6729 9.10938C70.6729 8.64062 70.9658 8.32812 71.5518 8.17188C72.46 7.92773 73.5879 7.80566 74.9355 7.80566C75.5801 7.80566 76 8.08398 76.1953 8.64062C76.3906 9.19727 76.4883 10.75 76.4883 13.2988C76.4883 15.8477 76.5713 17.4541 76.7373 18.1182C76.9619 19.0361 77.4551 19.583 78.2168 19.7588C78.4121 19.8076 78.6123 19.832 78.8174 19.832C79.1689 19.832 79.5303 19.7637 79.9014 19.627C80.5068 19.4121 80.9609 19.0947 81.2637 18.6748C81.5762 18.2451 81.7324 17.1514 81.7324 15.3936C81.7324 13.6357 81.6445 12.3955 81.4688 11.6729C81.293 10.9502 81.0439 10.3447 80.7217 9.85645C80.3994 9.36816 80.2383 9.02148 80.2383 8.81641C80.2383 8.13281 81.498 7.79102 84.0176 7.79102H84.4277C84.9355 7.79102 85.2773 7.89355 85.4531 8.09863C85.6387 8.29395 85.7314 8.80176 85.7314 9.62207L85.6729 11.7461L85.6582 12.1855V14.3535C85.6582 16.502 85.7168 17.8301 85.834 18.3379C85.9512 18.8457 86.2197 19.3779 86.6396 19.9346C87.0693 20.4912 87.2842 20.8086 87.2842 20.8867ZM96.4395 9.50488H96.0146C95.3994 9.50488 94.8086 9.82715 94.2422 10.4717C93.6855 11.1064 93.4072 11.8682 93.4072 12.7568V12.9912C93.4072 13.3525 93.6074 13.5332 94.0078 13.5332L94.1543 13.5625H95.1943L95.2676 13.5479L97.7139 13.4014C97.8604 13.3721 97.958 13.3574 98.0068 13.3574C98.5049 13.3574 98.7539 13.0986 98.7539 12.5811V12.0977C98.7539 11.4434 98.5195 10.8477 98.0508 10.3105C97.582 9.77344 97.0449 9.50488 96.4395 9.50488ZM93.583 16.4775C93.583 17.4541 94.042 18.2988 94.96 19.0117C95.6436 19.5488 96.5127 19.8174 97.5674 19.8174C98.0459 19.8174 98.7539 19.6807 99.6914 19.4072C100.639 19.1338 101.186 18.9971 101.332 18.9971C101.771 18.9971 101.991 19.2363 101.991 19.7148C101.991 20.2812 101.405 20.8574 100.233 21.4434C99.0713 22.0195 97.8652 22.3076 96.6152 22.3076H95.9707C95.9512 22.3076 95.9268 22.3076 95.8975 22.3076C95.1064 22.3076 94.3008 22.1465 93.4805 21.8242C91.8594 21.1992 90.707 20.1055 90.0234 18.543C89.5547 17.4688 89.3203 16.4482 89.3203 15.4814V14.8076C89.3203 13.8213 89.4912 12.8691 89.833 11.9512C90.4775 10.2227 91.6152 8.97754 93.2461 8.21582C94.2227 7.7666 95.248 7.54199 96.3223 7.54199H96.6592C98.251 7.54199 99.5938 8.03516 100.688 9.02148C101.264 9.54883 101.703 10.1836 102.006 10.9258C102.318 11.668 102.475 12.4248 102.475 13.1963C102.475 13.958 102.099 14.4609 101.347 14.7051C100.292 15.0469 98.3389 15.2178 95.4873 15.2178C94.7256 15.2178 94.2178 15.3154 93.9639 15.5107C93.71 15.6963 93.583 16.0186 93.583 16.4775ZM114.618 8.20117C115.058 8.45508 115.277 8.99219 115.277 9.8125C115.277 10.6328 115.219 11.1748 115.102 11.4385C114.984 11.7021 114.755 11.834 114.413 11.834C113.866 11.834 113.275 11.4385 112.641 10.6475C112.016 9.85645 111.225 9.46094 110.268 9.46094C109.721 9.46094 109.286 9.60254 108.964 9.88574C108.642 10.1689 108.48 10.4814 108.48 10.8232C108.48 11.4092 108.764 11.8975 109.33 12.2881C109.604 12.4736 110.478 12.8789 111.952 13.5039C113.437 14.1191 114.496 14.7588 115.131 15.4229C115.775 16.0771 116.098 16.9707 116.098 18.1035C116.098 19.2363 115.614 20.2227 114.647 21.0625C113.681 21.9023 112.44 22.3223 110.927 22.3223H110.15C108.256 22.3223 106.835 22.0977 105.888 21.6484C105.224 21.3359 104.892 20.5938 104.892 19.4219C104.892 18.25 105.111 17.6641 105.551 17.6641C106.107 17.6641 106.796 18.1182 107.616 19.0264C108.446 19.9346 109.345 20.3887 110.312 20.3887C110.897 20.3887 111.391 20.2666 111.791 20.0225C112.201 19.7686 112.406 19.3779 112.406 18.8506C112.406 18.3135 112.123 17.835 111.557 17.415C111.254 17.1904 110.434 16.7949 109.096 16.2285C107.768 15.6523 106.82 15.0957 106.254 14.5586C105.404 13.7578 104.979 12.7764 104.979 11.6143C104.979 10.4424 105.478 9.47559 106.474 8.71387C107.47 7.94238 108.632 7.55664 109.96 7.55664H110.355C112.445 7.55664 113.866 7.77148 114.618 8.20117ZM118.69 9.8418C118.261 9.54883 118.046 9.26562 118.046 8.99219C118.046 8.70898 118.305 8.43066 118.822 8.15723C119.34 7.88379 119.662 7.66406 119.789 7.49805C119.916 7.33203 120.116 6.87305 120.39 6.12109C120.673 5.36914 120.971 4.79297 121.283 4.39258C121.596 3.98242 122.006 3.77734 122.514 3.77734C123.021 3.77734 123.388 3.98242 123.612 4.39258C123.71 4.57813 123.837 5.01758 123.993 5.71094C124.159 6.4043 124.354 6.84863 124.579 7.04395C124.804 7.23926 125.233 7.45898 125.868 7.70312C126.503 7.9375 126.83 8.05957 126.85 8.06934C127.182 8.33301 127.348 8.64551 127.348 9.00684C127.348 9.31934 126.884 9.59766 125.956 9.8418C125.038 10.0859 124.447 10.457 124.184 10.9551C123.93 11.4531 123.803 12.6982 123.803 14.6904C123.803 16.6826 123.954 17.9766 124.257 18.5723C124.569 19.168 125.077 19.4658 125.78 19.4658L126.308 19.4219C126.542 19.4023 126.796 19.3926 127.069 19.3926C127.665 19.3926 127.963 19.6172 127.963 20.0664C127.963 20.6426 127.602 21.1016 126.879 21.4434C125.844 21.9316 124.75 22.1758 123.598 22.1758C123.061 22.1758 122.523 22.0293 121.986 21.7363C121.449 21.4434 121.039 21.0869 120.756 20.667C120.199 19.8467 119.921 18.6748 119.921 17.1514L119.906 16.8438C119.896 16.6289 119.892 16.3896 119.892 16.126V15.2617C119.892 13.5723 119.755 12.1318 119.481 10.9404C119.384 10.501 119.12 10.1348 118.69 9.8418Z" fill="white"/>
</svg>
