<svg width="17" height="20" viewBox="0 0 17 20" fill="none" xmlns="http://www.w3.org/2000/svg">
<path d="M8.76484 0C4.29884 0 0.665527 3.63332 0.665527 8.09931C0.665527 9.94211 1.26943 11.6776 2.41199 13.1182C3.89137 14.9835 8.19348 19.4123 8.37587 19.5999L8.76478 20L9.15375 19.6C9.33625 19.4123 13.6397 14.9824 15.1193 13.1166C16.2608 11.6771 16.8641 9.94222 16.8641 8.09931C16.8641 3.63332 13.2308 0 8.76484 0ZM14.2691 12.4424C13.078 13.9444 9.87923 17.2857 8.76484 18.4414C7.65055 17.2858 4.45291 13.9455 3.26208 12.444C2.27322 11.1971 1.75052 9.69479 1.75052 8.09931C1.75052 4.23158 4.89711 1.08499 8.76484 1.08499C12.6325 1.08499 15.7792 4.23158 15.7791 8.09931C15.7791 9.6949 15.2569 11.1967 14.2691 12.4424Z" fill="white"/>
<path d="M8.76496 3.2151C6.12138 3.2151 3.9707 5.36578 3.9707 8.00936C3.9707 10.6529 6.12143 12.8036 8.76496 12.8036C11.4085 12.8036 13.5592 10.6529 13.5592 8.00936C13.5592 5.36583 11.4085 3.2151 8.76496 3.2151ZM8.76496 11.7186C6.71964 11.7186 5.0557 10.0546 5.0557 8.00936C5.0557 5.96404 6.71969 4.3001 8.76496 4.3001C10.8102 4.3001 12.4742 5.9641 12.4742 8.00936C12.4742 10.0547 10.8103 11.7186 8.76496 11.7186Z" fill="white"/>
</svg>
