<svg width="23" height="22" viewBox="0 0 23 22" fill="none" xmlns="http://www.w3.org/2000/svg">
<path d="M22.6438 20.9458C22.1191 18.9762 20.9679 17.2307 19.364 15.9729C17.7264 14.679 15.7009 13.9739 13.6138 13.971H9.6951C7.61357 13.9686 5.59319 14.6746 3.96616 15.9729C2.36458 17.2234 1.20732 18.9556 0.665094 20.9138C0.627911 21.0426 0.62204 21.1784 0.647972 21.3099C0.673904 21.4415 0.730887 21.5649 0.814174 21.6699C0.89241 21.7735 0.993853 21.8574 1.11036 21.9147C1.22687 21.972 1.35519 22.0013 1.48504 22C1.67448 21.9983 1.85795 21.9335 2.00645 21.8159C2.15494 21.6983 2.25999 21.5345 2.30498 21.3504C2.73919 19.7318 3.69601 18.302 5.02668 17.2833C6.35736 16.2646 7.98732 15.7141 9.66316 15.7173H13.5818C15.2586 15.7105 16.8903 16.2596 18.2217 17.2789C19.5531 18.2981 20.5091 19.73 20.94 21.3504C20.985 21.5345 21.0901 21.6983 21.2386 21.8159C21.387 21.9335 21.5705 21.9983 21.76 22C21.8932 22.0038 22.0255 21.9758 22.1458 21.9184C22.2662 21.861 22.3712 21.7758 22.4521 21.6699C22.5371 21.5718 22.5986 21.4555 22.6318 21.33C22.665 21.2045 22.6691 21.0731 22.6438 20.9458ZM11.6544 12.3843C13.2775 12.3759 14.831 11.7245 15.9747 10.5728C17.1183 9.42115 17.7589 7.86314 17.7561 6.24008C17.7635 5.42039 17.6093 4.60728 17.3023 3.84719C16.9954 3.08711 16.5417 2.39495 15.9671 1.81027C15.4136 1.2399 14.7517 0.785933 14.0202 0.475056C13.2887 0.16418 12.5025 0.00266517 11.7077 5.92256e-06C10.8869 -0.00280128 10.0737 0.156609 9.31478 0.469077C8.55584 0.781544 7.86612 1.24091 7.28527 1.82077C6.70441 2.40064 6.24387 3.08957 5.93011 3.84798C5.61635 4.60639 5.45555 5.41933 5.45696 6.24008C5.45582 7.05 5.61734 7.8519 5.93197 8.59821C6.24659 9.34453 6.70789 10.02 7.28852 10.5847C8.44865 11.7382 10.0184 12.3853 11.6544 12.3843ZM11.6544 1.73573C12.8463 1.73573 13.9892 2.20917 14.832 3.0519C15.6747 3.89464 16.1482 5.03763 16.1482 6.22943C16.1482 7.42124 15.6747 8.56423 14.832 9.40697C13.9892 10.2497 12.8463 10.7231 11.6544 10.7231C11.0695 10.7204 10.4909 10.602 9.95181 10.375C9.41274 10.1479 8.92384 9.81657 8.5132 9.39999C8.10256 8.98342 7.77828 8.48982 7.55897 7.94754C7.33966 7.40526 7.22966 6.825 7.23528 6.24008C7.22106 5.0529 7.67835 3.90855 8.50683 3.05812C9.3353 2.20768 10.4673 1.72062 11.6544 1.70378V1.73573Z" fill="black"/>
</svg>
