<svg width="23" height="22" viewBox="0 0 23 22" fill="none" xmlns="http://www.w3.org/2000/svg">
<path d="M22.6436 20.9458C22.1189 18.9762 20.9677 17.2307 19.3638 15.9729C17.7261 14.679 15.7007 13.9739 13.6135 13.971H9.69486C7.61333 13.9686 5.59294 14.6746 3.96591 15.9729C2.36433 17.2234 1.20707 18.9556 0.664849 20.9138C0.627666 21.0426 0.621796 21.1784 0.647728 21.3099C0.67366 21.4415 0.730643 21.5649 0.81393 21.6699C0.892166 21.7735 0.993609 21.8574 1.11012 21.9147C1.22662 21.972 1.35495 22.0013 1.48479 22C1.67423 21.9983 1.85771 21.9335 2.0062 21.8159C2.1547 21.6983 2.25975 21.5345 2.30473 21.3504C2.73895 19.7318 3.69577 18.302 5.02644 17.2833C6.35711 16.2646 7.98707 15.7141 9.66291 15.7173H13.5816C15.2583 15.7105 16.8901 16.2596 18.2215 17.2789C19.5529 18.2981 20.5088 19.73 20.9398 21.3504C20.9848 21.5345 21.0898 21.6983 21.2383 21.8159C21.3868 21.9335 21.5703 21.9983 21.7597 22C21.893 22.0038 22.0253 21.9758 22.1456 21.9184C22.2659 21.861 22.3709 21.7758 22.4519 21.6699C22.5369 21.5718 22.5984 21.4555 22.6316 21.33C22.6648 21.2045 22.6689 21.0731 22.6436 20.9458ZM11.6542 12.3843C13.2772 12.3759 14.8308 11.7245 15.9744 10.5728C17.1181 9.42115 17.7587 7.86314 17.7558 6.24008C17.7632 5.42039 17.609 4.60728 17.3021 3.84719C16.9951 3.08711 16.5414 2.39495 15.9669 1.81027C15.4134 1.2399 14.7514 0.785933 14.0199 0.475056C13.2885 0.16418 12.5022 0.00266517 11.7074 5.92256e-06C10.8867 -0.00280128 10.0735 0.156609 9.31454 0.469077C8.55559 0.781544 7.86588 1.24091 7.28502 1.82077C6.70417 2.40064 6.24363 3.08957 5.92987 3.84798C5.61611 4.60639 5.45531 5.41933 5.45672 6.24008C5.45557 7.05 5.6171 7.8519 5.93172 8.59821C6.24634 9.34453 6.70765 10.02 7.28828 10.5847C8.4484 11.7382 10.0182 12.3853 11.6542 12.3843ZM11.6542 1.73573C12.846 1.73573 13.989 2.20917 14.8317 3.0519C15.6745 3.89464 16.1479 5.03763 16.1479 6.22943C16.1479 7.42124 15.6745 8.56423 14.8317 9.40697C13.989 10.2497 12.846 10.7231 11.6542 10.7231C11.0693 10.7204 10.4906 10.602 9.95157 10.375C9.41249 10.1479 8.9236 9.81657 8.51296 9.39999C8.10232 8.98342 7.77803 8.48982 7.55873 7.94754C7.33942 7.40526 7.22942 6.825 7.23503 6.24008C7.22081 5.0529 7.67811 3.90855 8.50658 3.05812C9.33506 2.20768 10.4671 1.72062 11.6542 1.70378V1.73573Z" fill="white"/>
</svg>
